<?xml version="1.0" encoding="utf-8"?>
<!-- Generator: Adobe Illustrator 21.0.2, SVG Export Plug-In . SVG Version: 6.00 Build 0)  -->
<svg version="1.1" id="Futura_-_Small_copy_1_" xmlns="http://www.w3.org/2000/svg" xmlns:xlink="http://www.w3.org/1999/xlink"
	 x="0px" y="0px" viewBox="0 0 59.8 32.7" style="enable-background:new 0 0 59.8 32.7;" xml:space="preserve">
<style type="text/css">
	.st0{fill:#32384F;}
	.st1{fill:#157A6E;}
</style>
<g id="BRS">
	<g>
		<path class="st0" d="M6.8,0.9c1.1,0,3.5,0.1,5.1,1.5c1.3,1.2,1.4,2.9,1.4,3.8c0,0.8-0.1,1.7-0.7,2.5c-0.5,0.8-1.2,1.3-1.7,1.5
			c1,0.1,2,0.6,2.8,1.4c0.7,0.7,1.3,1.8,1.3,3.6c0,2-0.8,3.3-1.6,4c-1.6,1.6-4,1.7-5.3,1.7H0.7v-20H6.8z M5.3,9H6
			c0.6,0,1.7-0.1,2.3-0.6c0.4-0.3,0.8-0.9,0.8-1.8c0-0.9-0.4-1.4-0.8-1.7C7.7,4.5,6.8,4.5,6,4.5H5.3V9z M5.3,17.3h1.1
			c1.2,0,2.6,0,3.4-0.8c0.4-0.4,0.7-1,0.7-1.7c0-0.8-0.3-1.3-0.6-1.6c-0.8-0.8-2.4-0.8-3.3-0.8H5.3V17.3z"/>
		<path class="st0" d="M30.1,0.9c2.5,0,4.1,0.8,5.1,1.7c0.8,0.8,1.7,2.2,1.7,4.5c0,1.3-0.3,2.8-1.6,4.1c-0.7,0.7-1.7,1.3-2.8,1.5
			l6.1,8.2h-5.6L27.7,13v7.9h-4.6v-20H30.1z M27.7,10h1.1c0.8,0,2-0.1,2.8-0.9c0.3-0.3,0.7-1,0.7-1.9c0-1.1-0.5-1.7-0.9-2
			c-0.8-0.6-2-0.6-2.6-0.6h-1.1V10z"/>
		<path class="st0" d="M56.1,5.8c-1.5-1.4-2.8-1.4-3.4-1.4c-0.6,0-1.4,0.1-2,0.7c-0.3,0.3-0.5,0.8-0.5,1.3c0,0.5,0.2,0.8,0.5,1.1
			c0.5,0.5,1.2,0.6,2.5,1.1l1.5,0.6c0.9,0.3,2,0.8,2.7,1.5c1.2,1.1,1.5,2.6,1.5,3.7c0,2.1-0.7,3.9-1.8,4.9c-1.8,1.9-4.4,2-5.7,2
			c-1.4,0-2.7-0.2-4-0.8c-1-0.5-2.2-1.4-2.9-2.2L47,15c0.5,0.5,1.3,1.2,1.9,1.5c0.8,0.5,1.6,0.7,2.5,0.7c0.6,0,1.4-0.1,2.1-0.7
			c0.4-0.3,0.7-0.9,0.7-1.6c0-0.7-0.3-1.1-0.7-1.4c-0.5-0.4-1.8-0.9-2.3-1.1l-1.7-0.6c-0.9-0.3-2-0.8-2.8-1.6
			c-1-1.1-1.2-2.5-1.2-3.5c0-1.8,0.5-3.3,1.7-4.5c1.4-1.4,3.1-1.8,5-1.8c1.4,0,3.6,0.2,5.9,2L56.1,5.8z"/>
	</g>
</g>
<g id="ASSURED">
	<g>
		<path class="st1" d="M5.7,30.9H2.8l-0.6,1.4H0.4l3.1-7.7h1.6l3,7.7H6.3L5.7,30.9z M5.2,29.6L4.3,27l-1,2.6H5.2z"/>
		<path class="st1" d="M14.7,26.6c-0.6-0.5-1.1-0.6-1.3-0.6c-0.2,0-0.5,0-0.7,0.3c-0.1,0.1-0.2,0.3-0.2,0.5c0,0.2,0.1,0.3,0.2,0.4
			c0.2,0.2,0.4,0.2,1,0.4l0.6,0.2c0.3,0.1,0.7,0.3,1,0.6c0.4,0.4,0.6,1,0.6,1.4c0,0.8-0.3,1.5-0.7,1.9c-0.7,0.7-1.7,0.8-2.2,0.8
			c-0.6,0-1-0.1-1.5-0.3c-0.4-0.2-0.8-0.6-1.1-0.8l0.9-1.3c0.2,0.2,0.5,0.5,0.7,0.6c0.3,0.2,0.6,0.3,1,0.3c0.2,0,0.6,0,0.8-0.3
			c0.1-0.1,0.3-0.3,0.3-0.6c0-0.3-0.1-0.4-0.3-0.6c-0.2-0.2-0.7-0.3-0.9-0.4l-0.6-0.2c-0.4-0.1-0.8-0.3-1.1-0.6
			c-0.4-0.4-0.5-1-0.5-1.3c0-0.7,0.2-1.3,0.7-1.7c0.5-0.6,1.2-0.7,1.9-0.7c0.5,0,1.4,0.1,2.3,0.8L14.7,26.6z"/>
		<path class="st1" d="M22.7,26.6c-0.6-0.5-1.1-0.6-1.3-0.6c-0.2,0-0.5,0-0.7,0.3c-0.1,0.1-0.2,0.3-0.2,0.5c0,0.2,0.1,0.3,0.2,0.4
			c0.2,0.2,0.4,0.2,1,0.4l0.6,0.2c0.3,0.1,0.7,0.3,1,0.6c0.4,0.4,0.6,1,0.6,1.4c0,0.8-0.3,1.5-0.7,1.9c-0.7,0.7-1.7,0.8-2.2,0.8
			c-0.6,0-1-0.1-1.5-0.3c-0.4-0.2-0.8-0.6-1.1-0.8l0.9-1.3c0.2,0.2,0.5,0.5,0.7,0.6c0.3,0.2,0.6,0.3,1,0.3c0.2,0,0.6,0,0.8-0.3
			c0.1-0.1,0.3-0.3,0.3-0.6c0-0.3-0.1-0.4-0.3-0.6c-0.2-0.2-0.7-0.3-0.9-0.4l-0.6-0.2c-0.4-0.1-0.8-0.3-1.1-0.6
			c-0.4-0.4-0.5-1-0.5-1.3c0-0.7,0.2-1.3,0.7-1.7c0.5-0.6,1.2-0.7,1.9-0.7c0.5,0,1.4,0.1,2.3,0.8L22.7,26.6z"/>
		<path class="st1" d="M33.3,29.3c0,0.7-0.1,1.6-0.9,2.4c-0.7,0.8-1.6,0.9-2.4,0.9c-0.8,0-1.7-0.1-2.4-0.9c-0.8-0.8-0.9-1.7-0.9-2.4
			v-4.5h1.8v4.5c0,0.3,0,0.9,0.4,1.3c0.3,0.3,0.7,0.4,1.1,0.4c0.3,0,0.8-0.1,1.1-0.4c0.4-0.4,0.4-1,0.4-1.3v-4.5h1.8V29.3z"/>
		<path class="st1" d="M39.4,24.7c1,0,1.6,0.3,2,0.7c0.3,0.3,0.7,0.9,0.7,1.7c0,0.5-0.1,1.1-0.6,1.6c-0.3,0.3-0.6,0.5-1.1,0.6
			l2.4,3.1h-2.2l-2.1-3v3h-1.8v-7.7H39.4z M38.5,28.2h0.4c0.3,0,0.8,0,1.1-0.3c0.1-0.1,0.3-0.4,0.3-0.7c0-0.4-0.2-0.7-0.4-0.8
			c-0.3-0.2-0.7-0.2-1-0.2h-0.4V28.2z"/>
		<path class="st1" d="M49.7,26.2h-2.6v1.5h2.4v1.5h-2.4v1.7h2.6v1.5h-4.3v-7.7h4.3V26.2z"/>
		<path class="st1" d="M55.3,24.7c1,0,2.1,0.1,3,1.1c0.7,0.7,1.1,1.6,1.1,2.7c0,1.2-0.4,2.1-1,2.7c-1.1,1.1-2.4,1.2-3,1.2h-2.5v-7.7
			H55.3z M54.7,30.9h0.5c0.4,0,1.2,0,1.7-0.5c0.4-0.3,0.7-1,0.7-1.9c0-0.8-0.3-1.4-0.6-1.7c-0.6-0.6-1.3-0.7-1.9-0.7h-0.5V30.9z"/>
	</g>
</g>
</svg>
